<?xml version="1.0" encoding="UTF-8" standalone="no"?>
<svg
   xmlns:dc="http://purl.org/dc/elements/1.1/"
   xmlns:cc="http://creativecommons.org/ns#"
   xmlns:rdf="http://www.w3.org/1999/02/22-rdf-syntax-ns#"
   xmlns:svg="http://www.w3.org/2000/svg"
   xmlns="http://www.w3.org/2000/svg"
   viewBox="0 0 555.58667 94.493332"
   height="94.493332"
   width="555.58667"
   xml:space="preserve"
   id="svg2"
   version="1.1"><metadata
     id="metadata8"><rdf:RDF><cc:Work
         rdf:about=""><dc:format>image/svg+xml</dc:format><dc:type
           rdf:resource="http://purl.org/dc/dcmitype/StillImage" /></cc:Work></rdf:RDF></metadata><defs
     id="defs6" /><g
     transform="matrix(1.3333333,0,0,-1.3333333,0,94.493333)"
     id="g10"><g
       transform="scale(0.1)"
       id="g12"><path
         id="path14"
         style="fill:#f47216;fill-opacity:1;fill-rule:evenodd;stroke:none"
         d="M 476.871,303.988 349.68,431.18 222.488,303.988 h 254.383" /><path
         id="path16"
         style="fill:#231f20;fill-opacity:1;fill-rule:evenodd;stroke:none"
         d="m 212.922,626.922 h 274.699 c 74.379,0 135.238,-60.863 135.238,-135.242 V 98.6484 c 0,-9.2968 -7.609,-16.9101 -16.91,-16.9101 H 212.922 c -74.383,0 -135.2423,60.8637 -135.2423,135.2417 v 274.7 c 0,74.379 60.8593,135.242 135.2423,135.242 z m 6.598,-80.633 h 262.332 c 33.418,0 60.757,-27.34 60.757,-60.758 V 223.199 c 0,-33.418 -27.339,-60.758 -60.757,-60.758 H 219.52 c -33.411,0 -60.758,27.34 -60.758,60.758 v 262.332 c 0,33.418 27.347,60.758 60.758,60.758" /><path
         id="path18"
         style="fill:#231f20;fill-opacity:1;fill-rule:nonzero;stroke:none"
         d="M 1118.48,544.059 H 1014.37 L 939.238,259.102 h -1.066 L 863.031,544.059 H 758.922 l 120.75,-383.168 h 114.84 l 123.968,383.168" /><path
         id="path20"
         style="fill:#231f20;fill-opacity:1;fill-rule:nonzero;stroke:none"
         d="m 1136.72,160.891 h 91.2305 v 278.52 H 1136.72 Z m 91.23,383.168 h -91.2305 v -69.7617 h 91.2305 z" /><path
         id="path22"
         style="fill:#231f20;fill-opacity:1;fill-rule:nonzero;stroke:none"
         d="m 1295.57,160.891 h 91.2305 V 544.059 H 1295.57 Z" /><path
         id="path24"
         style="fill:#231f20;fill-opacity:1;fill-rule:nonzero;stroke:none"
         d="m 1454.42,160.891 h 91.2266 V 544.059 H 1454.42 Z" /><path
         id="path26"
         style="fill:#231f20;fill-opacity:1;fill-rule:nonzero;stroke:none"
         d="m 1686.25,240.852 c 0.09,7.25 1.79,13.238 5.19,17.886 3.4,4.653 7.96,8.321 13.59,11.09 5.64,2.774 11.9,4.922 18.78,6.442 6.71,1.699 13.6,3.218 20.58,4.468 6.97,1.25 13.59,2.684 19.85,4.293 6.26,1.528 11.54,3.668 15.92,6.258 0.81,-19.051 -0.44,-34.699 -3.84,-46.769 -3.4,-12.168 -9.3,-21.11 -17.71,-26.84 -8.41,-5.719 -19.86,-8.578 -34.26,-8.489 -6.89,0 -13.23,1.071 -18.96,3.219 -5.72,2.141 -10.28,5.539 -13.77,10.192 -3.49,4.66 -5.28,10.738 -5.37,18.25 z m 5.37,112.699 c 2.23,11.801 7.15,20.57 14.93,26.289 7.79,5.719 17.98,8.59 30.68,8.59 4.74,0 9.75,-0.539 14.85,-1.61 5.01,-1.082 9.84,-2.679 14.22,-5.011 4.38,-2.329 7.96,-5.278 10.73,-9.028 2.69,-3.672 4.12,-8.14 4.21,-13.332 0,-5.64 -0.9,-10.199 -2.77,-13.597 -1.88,-3.391 -4.57,-5.993 -8.23,-7.872 -3.58,-1.878 -7.97,-3.308 -13.15,-4.289 -10.65,-2.062 -22.01,-3.839 -33.99,-5.281 -11.98,-1.519 -24.06,-3.308 -36.14,-5.371 -12.16,-1.961 -23.7,-4.82 -34.61,-8.488 -11,-3.582 -20.75,-8.59 -29.43,-14.942 -8.58,-6.347 -15.29,-14.578 -20.3,-24.769 -4.92,-10.11 -7.51,-22.719 -7.6,-37.75 0.09,-14.309 2.5,-26.828 7.33,-37.379 4.92,-10.563 11.63,-19.32 20.22,-26.301 8.67,-6.89 18.69,-12.07 30.14,-15.469 11.54,-3.402 23.97,-5.101 37.3,-5.101 11.18,0 22.27,1.07 33.36,3.398 11,2.321 21.55,5.992 31.48,11.09 10.02,5.012 18.96,11.633 26.92,19.863 0.54,-4.57 1.17,-9.043 1.88,-13.332 0.81,-4.39 1.97,-8.679 3.49,-12.968 h 91.77 c -3.49,7.328 -6,15.019 -7.52,23.078 -1.52,7.953 -2.5,16.011 -2.86,24.14 -0.27,8.231 -0.45,16.282 -0.36,24.153 v 121.816 c -0.09,15.742 -2.5,29.07 -7.15,39.981 -4.74,11 -11.18,19.953 -19.5,27.011 -8.41,6.981 -17.98,12.442 -28.98,16.282 -11,3.847 -22.72,6.437 -35.33,7.957 -12.7,1.519 -25.58,2.242 -38.91,2.152 -10.55,0 -21.1,-0.633 -31.57,-1.883 -10.37,-1.34 -20.39,-3.398 -30.05,-6.258 -9.66,-2.769 -18.6,-6.531 -26.92,-11.179 -8.23,-4.832 -15.56,-10.731 -21.92,-17.621 -6.26,-6.981 -11.26,-15.2 -15.02,-24.598 -3.76,-9.481 -5.9,-20.211 -6.53,-32.371 h 85.33" /><path
         id="path28"
         style="fill:#231f20;fill-opacity:1;fill-rule:nonzero;stroke:none"
         d="m 2021.71,160.891 h 99.81 v 127.718 h 82.11 c 28.27,-0.089 52.68,4.301 73.34,13.153 20.67,8.859 36.68,22.988 47.95,42.398 11.27,19.488 16.99,44.988 17.17,76.469 -0.09,18.16 -2.6,33.992 -7.51,47.672 -5.01,13.679 -11.9,25.308 -20.67,34.969 -8.76,9.66 -19.05,17.441 -30.67,23.441 -11.72,6.078 -24.24,10.461 -37.75,13.23 -13.59,2.778 -27.46,4.118 -41.86,4.118 h -181.92 z m 99.81,303.211 h 67.09 c 10.28,0.089 19.49,-1.614 27.55,-5.102 8.05,-3.398 14.39,-8.859 19.05,-16.281 4.65,-7.418 6.97,-17.078 7.06,-29.071 -0.09,-11.539 -2.41,-20.839 -6.98,-27.91 -4.56,-6.968 -10.91,-12.066 -18.96,-15.199 -8.05,-3.129 -17.26,-4.738 -27.72,-4.648 h -67.09 v 98.211" /><path
         id="path30"
         style="fill:#231f20;fill-opacity:1;fill-rule:nonzero;stroke:none"
         d="m 2388.78,160.891 h 91.23 v 137.918 c 0,8.761 1.43,17.171 4.38,25.043 2.95,7.867 7.25,14.937 13.06,21.019 5.82,6.168 12.97,11 21.47,14.578 8.59,3.492 18.51,5.281 29.78,5.371 6.09,0 11.99,-0.539 17.62,-1.429 5.64,-0.993 11.45,-2.332 17.26,-3.942 v 83.18 c -3.48,0.812 -7.06,1.34 -10.73,1.699 -3.66,0.274 -7.24,0.453 -10.73,0.453 -13.15,0 -25.14,-2.062 -36.14,-6.172 -11,-4.121 -20.48,-10.199 -28.62,-18.25 -8.14,-8.05 -14.4,-17.98 -18.96,-29.789 h -1.07 v 48.84 h -88.55 V 160.891" /><path
         id="path32"
         style="fill:#231f20;fill-opacity:1;fill-rule:nonzero;stroke:none"
         d="m 2682.33,299.879 c -0.09,8.941 0.81,18.07 2.68,27.101 1.79,9.122 4.83,17.442 9.04,25.129 4.2,7.61 9.92,13.782 16.99,18.43 7.16,4.652 16.01,7.063 26.56,7.16 10.56,-0.097 19.41,-2.508 26.66,-7.16 7.15,-4.648 12.88,-10.82 17.17,-18.43 4.29,-7.687 7.34,-16.007 9.21,-25.129 1.88,-9.031 2.87,-18.16 2.78,-27.101 0.09,-8.938 -0.9,-17.981 -2.78,-27.008 -1.87,-9.031 -4.92,-17.351 -9.21,-24.949 -4.29,-7.524 -10.02,-13.602 -17.17,-18.25 -7.25,-4.563 -16.1,-6.981 -26.66,-7.07 -10.55,0.089 -19.4,2.507 -26.56,7.07 -7.07,4.648 -12.79,10.726 -16.99,18.25 -4.21,7.598 -7.25,15.918 -9.04,24.949 -1.87,9.027 -2.77,18.07 -2.68,27.008 z m -91.23,0 c 0.09,-21.02 3.67,-40.43 10.73,-58.32 7.07,-17.789 17.08,-33.36 30.14,-46.59 12.97,-13.239 28.45,-23.528 46.33,-30.949 17.8,-7.34 37.66,-11.09 59.3,-11.18 21.74,0.09 41.51,3.84 59.39,11.18 17.98,7.421 33.45,17.71 46.51,30.949 13.06,13.23 23.17,28.801 30.32,46.59 7.16,17.89 10.74,37.3 10.83,58.32 -0.09,21.019 -3.67,40.519 -10.83,58.41 -7.15,17.883 -17.26,33.449 -30.32,46.77 -13.06,13.332 -28.53,23.711 -46.51,31.132 -17.88,7.418 -37.65,11.18 -59.39,11.27 -21.64,-0.09 -41.5,-3.852 -59.3,-11.27 -17.88,-7.421 -33.36,-17.8 -46.33,-31.132 -13.06,-13.321 -23.07,-28.887 -30.14,-46.77 -7.06,-17.891 -10.64,-37.391 -10.73,-58.41" /><path
         id="path34"
         style="fill:#231f20;fill-opacity:1;fill-rule:nonzero;stroke:none"
         d="m 3290.35,407.211 c -0.62,18.519 -4.47,35.328 -11.27,50.539 -6.89,15.199 -16.1,28.621 -27.64,40.328 -11.62,11.723 -24.77,21.563 -39.53,29.613 -14.76,8.047 -30.41,14.129 -46.87,18.25 -16.45,4.11 -33,6.168 -49.64,6.168 -23.25,-0.089 -44.72,-3.488 -64.4,-10.109 -19.67,-6.621 -37.29,-16.012 -52.94,-28.18 -15.57,-12.16 -28.89,-26.468 -39.81,-43.109 -11,-16.539 -19.4,-34.883 -25.13,-54.82 -5.81,-19.95 -8.67,-41.153 -8.77,-63.422 0.1,-22.27 2.96,-43.457 8.77,-63.41 5.73,-19.95 14.13,-38.278 25.13,-54.829 10.92,-16.628 24.24,-30.949 39.81,-43.109 15.65,-12.16 33.27,-21.551 52.94,-28.172 19.68,-6.621 41.15,-10.019 64.4,-10.109 24.42,0.09 46.87,3.582 67.53,10.64 20.66,6.981 38.82,17.27 54.38,30.68 15.56,13.512 27.91,29.879 37.12,49.281 9.12,19.321 14.49,41.411 15.92,66.098 h -99.82 c -1.25,-14.758 -5,-27.367 -11.36,-37.918 -6.25,-10.562 -14.93,-18.691 -25.93,-24.332 -11.09,-5.629 -24.42,-8.5 -39.98,-8.59 -16.1,0.18 -29.79,3.403 -41.06,9.75 -11.36,6.442 -20.57,15.031 -27.64,25.762 -7.06,10.82 -12.25,22.988 -15.56,36.488 -3.22,13.512 -4.83,27.371 -4.83,41.77 0,14.402 1.61,28.261 4.83,41.769 3.31,13.512 8.5,25.672 15.56,36.492 7.07,10.829 16.28,19.411 27.64,25.758 11.27,6.352 24.96,9.66 41.06,9.75 14.04,0 26.47,-2.226 37.47,-6.707 10.91,-4.472 19.77,-11.09 26.66,-19.851 6.88,-8.77 11.27,-19.59 13.14,-32.469 h 99.82" /><path
         id="path36"
         style="fill:#231f20;fill-opacity:1;fill-rule:nonzero;stroke:none"
         d="m 3507.69,439.41 h -56.35 v 84.25 h -91.23 v -84.25 h -46.15 v -59.031 h 46.15 V 256.41 c -0.09,-18.871 1.34,-34.609 4.29,-47.219 3.05,-12.711 8.14,-22.812 15.39,-30.23 7.24,-7.52 17.17,-12.789 29.87,-16.012 12.7,-3.219 28.8,-4.828 48.12,-4.75 8.32,0.09 16.64,0.449 24.95,1.172 8.32,0.617 16.64,1.16 24.96,1.52 v 67.078 c -4.03,-0.09 -8.05,-0.27 -11.98,-0.539 -4.03,-0.352 -7.88,-0.539 -11.63,-0.539 -6.62,-0.082 -12.43,0.629 -17.36,2.058 -4.83,1.43 -8.58,4.121 -11.26,8.051 -2.69,3.852 -4.12,9.48 -4.12,16.73 v 126.649 h 56.35 v 59.031" /><path
         id="path38"
         style="fill:#231f20;fill-opacity:1;fill-rule:nonzero;stroke:none"
         d="m 3551.7,160.891 h 91.23 v 137.918 c 0,8.761 1.43,17.171 4.38,25.043 2.95,7.867 7.25,14.937 13.06,21.019 5.82,6.168 12.97,11 21.47,14.578 8.58,3.492 18.51,5.281 29.78,5.371 6.09,0 11.99,-0.539 17.62,-1.429 5.64,-0.993 11.45,-2.332 17.26,-3.942 v 83.18 c -3.48,0.812 -7.06,1.34 -10.73,1.699 -3.66,0.274 -7.25,0.453 -10.73,0.453 -13.15,0 -25.14,-2.062 -36.14,-6.172 -11,-4.121 -20.48,-10.199 -28.62,-18.25 -8.14,-8.05 -14.4,-17.98 -18.96,-29.789 h -1.07 v 48.84 H 3551.7 V 160.891" /><path
         id="path40"
         style="fill:#231f20;fill-opacity:1;fill-rule:nonzero;stroke:none"
         d="m 3780.31,160.891 h 91.2305 V 544.059 H 3780.31 Z" /><path
         id="path42"
         style="fill:#231f20;fill-opacity:1;fill-rule:nonzero;stroke:none"
         d="m 3990.51,460.941 h 14.36 l 24.01,-39.722 h 17.28 l -26.03,40.84 c 4.68,0.492 8.83,1.679 12.45,3.55 3.67,1.84 6.51,4.571 8.61,8.121 2.05,3.551 3.14,8.122 3.18,13.692 0,6.277 -1.28,11.367 -3.78,15.297 -2.54,3.922 -6.32,6.84 -11.33,8.672 -5.05,1.828 -11.3,2.769 -18.78,2.73 h -35.23 v -92.902 h 15.26 z m 0,13.008 v 27.16 h 18.4 c 2.32,0.039 4.68,-0.109 7.03,-0.379 2.36,-0.3 4.53,-0.859 6.51,-1.679 1.98,-0.86 3.59,-2.129 4.79,-3.813 1.23,-1.687 1.83,-3.886 1.87,-6.699 0,-3.328 -0.6,-5.98 -1.76,-7.961 -1.16,-1.949 -2.73,-3.449 -4.71,-4.379 -2.02,-0.937 -4.31,-1.57 -6.88,-1.871 -2.58,-0.258 -5.32,-0.406 -8.2,-0.379 z m 98.74,-4.711 c -0.04,10.141 -1.5,19.492 -4.31,28.133 -2.84,8.598 -6.84,16.379 -11.93,23.219 -5.12,6.879 -11.1,12.719 -17.98,17.582 -6.89,4.859 -14.37,8.558 -22.48,11.109 -8.12,2.578 -16.61,3.848 -25.43,3.891 -8.94,-0.043 -17.47,-1.313 -25.66,-3.891 -8.15,-2.551 -15.71,-6.25 -22.59,-11.109 -6.92,-4.863 -12.94,-10.703 -18.06,-17.582 -5.13,-6.84 -9.09,-14.621 -11.94,-23.219 -2.84,-8.641 -4.3,-17.992 -4.34,-28.133 0.04,-9.566 1.35,-18.617 3.97,-27.078 2.62,-8.449 6.36,-16.148 11.22,-23.109 4.86,-6.961 10.7,-12.942 17.5,-17.949 6.77,-5.051 14.37,-8.903 22.78,-11.633 8.42,-2.731 17.43,-4.117 27.12,-4.149 8.82,0.032 17.31,1.309 25.43,3.879 8.11,2.551 15.59,6.289 22.48,11.11 6.88,4.863 12.86,10.703 17.98,17.582 5.09,6.879 9.09,14.621 11.93,23.23 2.81,8.641 4.27,17.988 4.31,28.117 z m -17.96,0 c -0.03,-10.316 -1.72,-19.707 -4.97,-28.16 -3.25,-8.449 -7.82,-15.777 -13.65,-21.918 -5.84,-6.129 -12.61,-10.879 -20.38,-14.211 -7.74,-3.328 -16.12,-5.008 -25.17,-5.051 -8.01,0.043 -15.34,1.204 -22.07,3.551 -6.69,2.321 -12.68,5.61 -17.95,9.879 -5.24,4.231 -9.69,9.242 -13.35,15.031 -3.67,5.762 -6.48,12.121 -8.38,19.039 -1.91,6.883 -2.88,14.172 -2.88,21.84 0.04,10.25 1.72,19.602 4.97,28.051 3.29,8.492 7.86,15.781 13.73,21.961 5.83,6.129 12.68,10.879 20.49,14.238 7.82,3.371 16.31,5.063 25.44,5.09 9.01,-0.027 17.43,-1.719 25.17,-5.09 7.77,-3.359 14.54,-8.109 20.38,-14.238 5.83,-6.18 10.4,-13.469 13.65,-21.961 3.25,-8.449 4.94,-17.801 4.97,-28.051" /></g></g></svg>